<?xml version="1.0" standalone="no"?>
<!DOCTYPE svg PUBLIC "-//W3C//DTD SVG 20010904//EN"
 "http://www.w3.org/TR/2001/REC-SVG-20010904/DTD/svg10.dtd">
<svg version="1.0" xmlns="http://www.w3.org/2000/svg"
 width="1181.000000pt" height="1160.000000pt" viewBox="0 0 1181.000000 1160.000000"
 preserveAspectRatio="xMidYMid meet">

<g transform="translate(0.000000,1160.000000) scale(0.100000,-0.100000)"
fill="#000000" stroke="none">
<path d="M5730 10570 c-293 -45 -510 -293 -513 -585 -2 -167 50 -300 164 -419
l69 -73 0 -359 0 -359 -87 -28 c-207 -67 -400 -184 -565 -345 -245 -238 -387
-521 -433 -862 -19 -135 -19 -231 0 -372 43 -328 172 -591 408 -835 l108 -111
-260 -589 c-142 -323 -282 -640 -310 -703 -28 -63 -51 -117 -51 -121 0 -11
223 -132 338 -183 100 -45 352 -136 377 -136 6 0 75 143 152 318 538 1218 484
1102 512 1094 14 -4 100 -7 191 -6 129 1 188 6 270 23 300 63 528 187 746 405
218 218 341 445 406 750 31 145 31 417 0 563 -65 302 -189 531 -406 749 -178
178 -356 289 -578 360 l-88 29 0 359 0 359 63 66 c139 145 197 329 163 519
-34 190 -152 349 -328 438 -94 47 -241 70 -348 54z m333 -2324 c166 -49 305
-133 418 -254 112 -118 178 -232 226 -389 24 -80 27 -103 27 -248 0 -145 -3
-168 -27 -248 -52 -168 -131 -300 -248 -413 -197 -189 -429 -276 -698 -261
-238 13 -448 111 -618 290 -249 263 -322 659 -180 987 51 117 92 181 176 271
139 151 301 241 507 284 108 23 306 13 417 -19z"/>
<path d="M5730 7779 c-218 -42 -379 -274 -342 -489 62 -351 478 -490 729 -243
210 207 155 563 -107 691 -98 48 -182 60 -280 41z"/>
<path d="M1705 8129 c-315 -41 -575 -269 -657 -578 -28 -107 -28 -287 0 -392
54 -200 199 -390 366 -480 33 -17 38 -29 56 -134 21 -127 98 -428 146 -570
276 -835 778 -1547 1485 -2107 199 -158 511 -354 765 -481 118 -59 371 -165
504 -210 525 -181 1119 -267 1651 -238 396 22 734 80 1083 186 65 20 122 32
127 28 4 -4 73 -159 154 -343 181 -412 176 -402 235 -461 91 -91 216 -132 338
-111 63 11 177 60 855 376 43 20 83 36 88 36 13 0 11 12 -10 56 -10 21 -76
162 -145 313 -113 243 -164 350 -171 359 -1 1 -49 -20 -106 -47 -272 -128
-365 -168 -370 -162 -4 3 -70 150 -147 326 -77 176 -244 554 -370 840 -126
286 -309 702 -407 925 -98 223 -181 409 -185 414 -5 4 -34 -10 -67 -31 -165
-112 -406 -216 -623 -271 -22 -6 -34 -14 -32 -23 3 -14 52 -126 407 -929 108
-245 199 -450 201 -456 3 -6 -3 -14 -13 -17 -420 -120 -759 -166 -1153 -154
-596 19 -1151 176 -1675 475 -507 290 -965 741 -1277 1259 -81 135 -222 416
-259 518 -97 267 -152 460 -186 650 l-9 50 64 70 c80 87 136 181 175 293 26
74 31 106 35 210 5 140 -6 210 -49 323 -53 139 -160 274 -283 358 -148 102
-361 153 -541 130z"/>
<path d="M9233 4536 c-204 -50 -354 -238 -353 -446 1 -105 -8 -82 310 -800 64
-146 157 -355 205 -465 236 -536 275 -620 287 -617 15 4 72 29 413 179 395
174 399 176 408 184 5 3 -1 26 -13 50 -13 24 -44 93 -70 154 -27 60 -93 211
-148 335 -54 124 -190 432 -301 684 -111 253 -213 481 -226 506 -92 182 -314
284 -512 236z"/>
<path d="M3431 2932 c-14 -26 -230 -518 -253 -577 -44 -111 4 -245 109 -304
15 -8 -5 -59 -149 -387 -91 -209 -169 -389 -173 -401 -10 -35 14 -104 47 -135
57 -54 154 -55 209 -2 17 17 86 162 195 410 132 300 172 382 184 377 8 -3 40
-8 71 -10 67 -6 140 21 188 71 22 23 74 128 171 346 l138 314 -121 46 c-166
63 -317 130 -468 206 -69 35 -129 64 -132 64 -4 0 -11 -8 -16 -18z"/>
<path d="M10520 2017 c-102 -46 -287 -128 -412 -182 -125 -55 -227 -102 -227
-105 0 -3 41 -34 91 -70 50 -36 183 -134 296 -217 196 -146 208 -153 252 -153
49 0 90 22 110 61 8 15 45 333 83 717 2 17 1 32 -3 32 -3 0 -88 -38 -190 -83z"/>
</g>
</svg>
